<svg width="30" height="30" viewBox="0 0 30 30" fill="none" xmlns="http://www.w3.org/2000/svg">
<g clip-path="url(#clip0_336_515)">
<path d="M25.5117 21.1699L20.2559 20.8184C19.9512 20.8008 19.6523 20.8828 19.4062 21.0645C19.1602 21.2461 18.9844 21.498 18.9141 21.7969L17.625 26.9062C16.7812 27.0938 15.9023 27.1875 15 27.1875C14.0977 27.1875 13.2246 27.0879 12.375 26.9062L11.0859 21.7969C11.0098 21.5039 10.834 21.2461 10.5938 21.0645C10.3535 20.8828 10.0488 20.8008 9.74414 20.8184L4.48828 21.1699C3.61523 19.6816 3.04102 17.9883 2.87109 16.1836L7.32422 13.377C7.58203 13.2129 7.76953 12.9668 7.86328 12.6797C7.95703 12.3926 7.94531 12.082 7.83398 11.8008L5.88281 6.91406C7.04883 5.60156 8.49609 4.54102 10.125 3.82617L14.1738 7.20117C14.4082 7.39453 14.7012 7.5 15 7.5C15.2988 7.5 15.5977 7.39453 15.8262 7.20117L19.875 3.82617C21.5039 4.54102 22.9512 5.60156 24.1172 6.91406L22.1602 11.8008C22.0488 12.082 22.0371 12.3926 22.1309 12.6797C22.2246 12.9668 22.418 13.2129 22.6699 13.377L27.1289 16.1836C26.9531 17.9883 26.3848 19.6816 25.5117 21.1699ZM15 2.8125H15.0527H14.9473H15ZM3.32227 11.4961C3.375 11.3203 3.43359 11.1387 3.49219 10.9629L3.32227 11.4961ZM7.73438 24.7852L7.95703 24.9434C7.88086 24.8906 7.81055 24.8379 7.73438 24.7852ZM22.2715 24.7793C22.1953 24.8379 22.1133 24.8965 22.0371 24.9492L22.2715 24.7793ZM26.6777 11.502L26.502 10.9629C26.5664 11.1387 26.625 11.3203 26.6777 11.502ZM15 30C18.9782 30 22.7936 28.4196 25.6066 25.6066C28.4196 22.7936 30 18.9782 30 15C30 11.0218 28.4196 7.20644 25.6066 4.3934C22.7936 1.58035 18.9782 0 15 0C11.0218 0 7.20644 1.58035 4.3934 4.3934C1.58035 7.20644 0 11.0218 0 15C0 18.9782 1.58035 22.7936 4.3934 25.6066C7.20644 28.4196 11.0218 30 15 30ZM15.8262 10.916C15.334 10.5586 14.666 10.5586 14.1738 10.916L11.3672 12.9492C10.875 13.3066 10.6699 13.9395 10.8574 14.5195L11.9297 17.8184C12.1172 18.3984 12.6562 18.791 13.2656 18.791H16.7344C17.3438 18.791 17.8828 18.3984 18.0703 17.8184L19.1426 14.5195C19.3301 13.9395 19.125 13.3066 18.6328 12.9492L15.8262 10.9102V10.916Z" fill="white"/>
</g>
<defs>
<clipPath id="clip0_336_515">
<rect width="30" height="30" fill="white"/>
</clipPath>
</defs>
</svg>
