<svg width="72" height="72" viewBox="0 0 72 72" fill="none" xmlns="http://www.w3.org/2000/svg">
<mask id="mask0_492_602" style="mask-type:alpha" maskUnits="userSpaceOnUse" x="0" y="0" width="72" height="72">
<rect width="72" height="72" fill="#D9D9D9"/>
</mask>
<g mask="url(#mask0_492_602)">
<path d="M11.202 53.7183C9.42952 53.7183 7.92292 53.0226 6.6822 51.6312C5.44148 50.2398 4.82112 48.5503 4.82112 46.5627H0V19H36.962L51 34.3185V46.5627H46.557C46.557 48.5503 45.9367 50.2398 44.6959 51.6312C43.4552 53.0226 41.9486 53.7183 40.1762 53.7183C38.4037 53.7183 36.8971 53.0226 35.6564 51.6312C34.4156 50.2398 33.7953 48.5503 33.7953 46.5627H17.5829C17.5829 48.5415 16.9625 50.2288 15.7218 51.6246C14.4811 53.0204 12.9745 53.7183 11.202 53.7183ZM31.9518 32.1983H43.5794L35.2132 23.1344H31.9518V32.1983ZM17.8192 32.1983H28.2651V23.1344H17.8192V32.1983ZM3.68664 32.1983H14.1325V23.1344H3.68664V32.1983ZM11.202 50.008C12.0622 50.008 12.7893 49.675 13.3833 49.0089C13.9773 48.3428 14.2743 47.5274 14.2743 46.5627C14.2743 45.598 13.9773 44.7826 13.3833 44.1165C12.7893 43.4504 12.0622 43.1173 11.202 43.1173C10.3417 43.1173 9.61463 43.4504 9.02065 44.1165C8.42667 44.7826 8.12969 45.598 8.12969 46.5627C8.12969 47.5274 8.42667 48.3428 9.02065 49.0089C9.61463 49.675 10.3417 50.008 11.202 50.008ZM40.1762 50.008C41.0364 50.008 41.7635 49.675 42.3575 49.0089C42.9515 48.3428 43.2485 47.5274 43.2485 46.5627C43.2485 45.598 42.9515 44.7826 42.3575 44.1165C41.7635 43.4504 41.0364 43.1173 40.1762 43.1173C39.3159 43.1173 38.5888 43.4504 37.9948 44.1165C37.4008 44.7826 37.1038 45.598 37.1038 46.5627C37.1038 47.5274 37.4008 48.3428 37.9948 49.0089C38.5888 49.675 39.3159 50.008 40.1762 50.008ZM3.68664 42.4283H6.12562C6.64869 41.6014 7.34901 40.8912 8.22659 40.2975C9.10416 39.7038 10.096 39.407 11.202 39.407C12.308 39.407 13.288 39.6906 14.1419 40.2577C14.9959 40.8249 15.708 41.5484 16.2784 42.4283H35.0998C35.6229 41.6014 36.3232 40.8912 37.2007 40.2975C38.0783 39.7038 39.0701 39.407 40.1762 39.407C41.2822 39.407 42.2622 39.6906 43.1161 40.2577C43.97 40.8249 44.6822 41.5484 45.2525 42.4283H47.3134V36.3327H3.68664V42.4283Z" fill="#005762"/>
</g>
</svg>
