<svg width="72" height="72" viewBox="0 0 72 72" fill="none" xmlns="http://www.w3.org/2000/svg">
<mask id="mask0_492_584" style="mask-type:alpha" maskUnits="userSpaceOnUse" x="0" y="0" width="72" height="72">
<rect width="72" height="72" fill="#D9D9D9"/>
</mask>
<g mask="url(#mask0_492_584)">
<path d="M31.3997 55.5898C31.1652 55.5898 30.947 55.5516 30.7449 55.4752C30.5429 55.3987 30.3508 55.2676 30.1687 55.0816L20.3581 45.0829C20.176 44.897 20.0476 44.7008 19.9727 44.4945C19.8979 44.2882 19.8605 44.0653 19.8605 43.8259C19.8605 43.5865 19.8979 43.3636 19.9727 43.1573C20.0476 42.951 20.176 42.7548 20.3581 42.5689L24.0436 38.8056C24.2257 38.6196 24.4178 38.4884 24.6198 38.412C24.8219 38.3356 25.0402 38.2974 25.2746 38.2974C25.5091 38.2974 25.7273 38.3356 25.9294 38.412C26.1315 38.4884 26.3235 38.6196 26.5056 38.8056L36.3162 48.8234C36.4983 49.0093 36.6267 49.2054 36.7015 49.4118C36.7764 49.6181 36.8138 49.841 36.8138 50.0804C36.8138 50.3198 36.7764 50.5427 36.7015 50.749C36.6267 50.9553 36.4983 51.1515 36.3162 51.3374L32.6307 55.0816C32.4486 55.2676 32.2565 55.3987 32.0545 55.4752C31.8524 55.5516 31.6342 55.5898 31.3997 55.5898ZM31.3997 52.1895L33.4651 50.0804L25.3046 41.7474L23.2391 43.8565L31.3997 52.1895ZM5.44403 55.6203C5.20954 55.6203 4.9863 55.577 4.77429 55.4905C4.56224 55.4038 4.36518 55.2676 4.1831 55.0816L0.527563 51.3679C0.34545 51.182 0.211995 50.9808 0.127197 50.7643C0.0423989 50.5478 0 50.3198 0 50.0804C0 49.841 0.0423989 49.6149 0.127197 49.4022C0.211995 49.1896 0.34545 48.9902 0.527563 48.8043L10.6898 38.4273H14.7869L16.3659 36.815L8.22782 28.505H5.45526L0.056132 22.9918L4.87906 18.067L10.2782 23.5802V26.4113L18.4163 34.7213L24.1709 28.8451L21.3309 25.9452L23.7929 23.4312H18.839L17.7577 22.3461L23.9725 16L25.0351 17.085V22.1627L27.4971 19.6487L34.8158 27.0838C35.3296 27.5958 35.7169 28.179 35.9776 28.8337C36.2382 29.4883 36.3685 30.1811 36.3685 30.9121C36.3685 31.554 36.26 32.1722 36.043 32.767C35.826 33.3617 35.5105 33.9023 35.0964 34.3889L31.0367 30.2434L28.2941 33.044L26.2325 30.9388L16.8186 40.5516V44.7428L6.67499 55.0816C6.49291 55.2676 6.30084 55.4038 6.09879 55.4905C5.89676 55.577 5.67851 55.6203 5.44403 55.6203ZM5.44403 52.1703L14.3679 43.058V40.9489H12.3024L3.37857 50.0613L5.44403 52.1703ZM5.44403 52.1703L3.37857 50.0613L4.42626 51.1005L5.44403 52.1703Z" fill="#005762"/>
</g>
</svg>
