<svg width="167" height="50" viewBox="0 0 167 50" fill="none" xmlns="http://www.w3.org/2000/svg">
<mask id="mask0_341_1099" style="mask-type:alpha" maskUnits="userSpaceOnUse" x="116" y="0" width="50" height="50">
<rect x="116.049" y="0.000488281" width="49.95" height="49.9497" fill="#D9D9D9"/>
</mask>
<g mask="url(#mask0_341_1099)">
<path d="M141.024 33.4442L134.724 38.243C134.502 38.3951 134.28 38.4625 134.055 38.4452C133.831 38.4278 133.626 38.3645 133.439 38.2551C133.252 38.1456 133.11 37.9829 133.013 37.7668C132.915 37.5507 132.913 37.3198 133.007 37.0744L135.412 29.1696L129.429 24.851C129.199 24.707 129.052 24.5229 128.988 24.2987C128.924 24.0746 128.935 23.8518 129.02 23.6303C129.106 23.4089 129.235 23.2307 129.409 23.096C129.582 22.9613 129.792 22.8939 130.037 22.8939H137.55L140.007 14.8251C140.1 14.5796 140.236 14.3868 140.413 14.2467C140.591 14.1067 140.794 14.0366 141.024 14.0366C141.253 14.0366 141.457 14.1067 141.634 14.2467C141.811 14.3868 141.947 14.5796 142.04 14.8251L144.498 22.8939H152.01C152.256 22.8939 152.465 22.9613 152.639 23.096C152.812 23.2307 152.942 23.4089 153.027 23.6303C153.112 23.8518 153.123 24.0746 153.059 24.2987C152.995 24.5229 152.848 24.707 152.619 24.851L146.635 29.1696L149.04 37.0744C149.134 37.3198 149.132 37.5507 149.035 37.7668C148.937 37.9829 148.795 38.1456 148.608 38.2551C148.421 38.3645 148.216 38.4278 147.992 38.4452C147.768 38.4625 147.545 38.3951 147.323 38.243L141.024 33.4442Z" fill="#D4AF37"/>
</g>
<mask id="mask1_341_1099" style="mask-type:alpha" maskUnits="userSpaceOnUse" x="87" y="0" width="51" height="50">
<rect x="87.0991" y="0.000488281" width="49.95" height="49.9497" fill="#D9D9D9"/>
</mask>
<g mask="url(#mask1_341_1099)">
<path d="M112.074 33.4442L105.774 38.243C105.553 38.3951 105.33 38.4625 105.106 38.4452C104.882 38.4278 104.676 38.3645 104.489 38.2551C104.303 38.1456 104.161 37.9829 104.063 37.7668C103.966 37.5507 103.964 37.3198 104.057 37.0744L106.463 29.1696L100.479 24.851C100.25 24.707 100.103 24.5229 100.039 24.2987C99.9747 24.0746 99.9854 23.8518 100.071 23.6303C100.156 23.4089 100.286 23.2307 100.459 23.096C100.632 22.9613 100.842 22.8939 101.087 22.8939H108.6L111.057 14.8251C111.151 14.5796 111.286 14.3868 111.464 14.2467C111.641 14.1067 111.845 14.0366 112.074 14.0366C112.303 14.0366 112.507 14.1067 112.684 14.2467C112.862 14.3868 112.997 14.5796 113.091 14.8251L115.548 22.8939H123.061C123.306 22.8939 123.516 22.9613 123.689 23.096C123.862 23.2307 123.992 23.4089 124.077 23.6303C124.163 23.8518 124.173 24.0746 124.109 24.2987C124.045 24.5229 123.898 24.707 123.669 24.851L117.685 29.1696L120.091 37.0744C120.184 37.3198 120.182 37.5507 120.085 37.7668C119.987 37.9829 119.845 38.1456 119.659 38.2551C119.472 38.3645 119.266 38.4278 119.042 38.4452C118.818 38.4625 118.595 38.3951 118.374 38.243L112.074 33.4442Z" fill="#D4AF37"/>
</g>
<mask id="mask2_341_1099" style="mask-type:alpha" maskUnits="userSpaceOnUse" x="29" y="0" width="51" height="50">
<rect x="29.1997" y="0.000488281" width="49.95" height="49.9497" fill="#D9D9D9"/>
</mask>
<g mask="url(#mask2_341_1099)">
<path d="M54.1746 33.4442L47.8748 38.243C47.6533 38.3951 47.4305 38.4625 47.2064 38.4452C46.9822 38.4278 46.7768 38.3645 46.59 38.2551C46.4032 38.1456 46.2611 37.9829 46.1637 37.7668C46.0663 37.5507 46.0643 37.3198 46.1577 37.0744L48.5632 29.1696L42.5795 24.851C42.3501 24.707 42.2033 24.5229 42.1393 24.2987C42.0753 24.0746 42.0859 23.8518 42.1713 23.6303C42.2567 23.4089 42.3861 23.2307 42.5596 23.096C42.733 22.9613 42.9425 22.8939 43.188 22.8939H50.7005L53.1579 14.8251C53.2513 14.5796 53.3868 14.3868 53.5642 14.2467C53.7416 14.1067 53.9451 14.0366 54.1746 14.0366C54.404 14.0366 54.6075 14.1067 54.7849 14.2467C54.9624 14.3868 55.0978 14.5796 55.1912 14.8251L57.6486 22.8939H65.1612C65.4066 22.8939 65.6161 22.9613 65.7895 23.096C65.963 23.2307 66.0924 23.4089 66.1778 23.6303C66.2632 23.8518 66.2738 24.0746 66.2098 24.2987C66.1458 24.5229 65.999 24.707 65.7696 24.851L59.7859 29.1696L62.1914 37.0744C62.2848 37.3198 62.2828 37.5507 62.1854 37.7668C62.088 37.9829 61.9459 38.1456 61.7592 38.2551C61.5724 38.3645 61.3669 38.4278 61.1427 38.4452C60.9186 38.4625 60.6958 38.3951 60.4743 38.243L54.1746 33.4442Z" fill="#D4AF37"/>
</g>
<mask id="mask3_341_1099" style="mask-type:alpha" maskUnits="userSpaceOnUse" x="58" y="0" width="51" height="50">
<rect x="58.1494" y="0.000488281" width="49.95" height="49.9497" fill="#D9D9D9"/>
</mask>
<g mask="url(#mask3_341_1099)">
<path d="M83.1243 33.4442L76.8245 38.243C76.603 38.3951 76.3802 38.4625 76.1561 38.4452C75.9319 38.4278 75.7265 38.3645 75.5397 38.2551C75.3529 38.1456 75.2108 37.9829 75.1134 37.7668C75.016 37.5507 75.014 37.3198 75.1074 37.0744L77.5129 29.1696L71.5293 24.851C71.2998 24.707 71.1531 24.5229 71.089 24.2987C71.025 24.0746 71.0357 23.8518 71.121 23.6303C71.2064 23.4089 71.3358 23.2307 71.5093 23.096C71.6827 22.9613 71.8922 22.8939 72.1377 22.8939H79.6502L82.1076 14.8251C82.201 14.5796 82.3365 14.3868 82.5139 14.2467C82.6913 14.1067 82.8948 14.0366 83.1243 14.0366C83.3537 14.0366 83.5572 14.1067 83.7346 14.2467C83.9121 14.3868 84.0475 14.5796 84.1409 14.8251L86.5983 22.8939H94.1109C94.3564 22.8939 94.5658 22.9613 94.7393 23.096C94.9127 23.2307 95.0421 23.4089 95.1275 23.6303C95.2129 23.8518 95.2235 24.0746 95.1595 24.2987C95.0955 24.5229 94.9487 24.707 94.7193 24.851L88.7356 29.1696L91.1411 37.0744C91.2345 37.3198 91.2325 37.5507 91.1351 37.7668C91.0377 37.9829 90.8956 38.1456 90.7089 38.2551C90.5221 38.3645 90.3166 38.4278 90.0924 38.4452C89.8683 38.4625 89.6455 38.3951 89.4241 38.243L83.1243 33.4442Z" fill="#D4AF37"/>
</g>
<mask id="mask4_341_1099" style="mask-type:alpha" maskUnits="userSpaceOnUse" x="0" y="0" width="51" height="50">
<rect x="0.25" y="0.000488281" width="49.95" height="49.9497" fill="#D9D9D9"/>
</mask>
<g mask="url(#mask4_341_1099)">
<path d="M25.2251 33.4442L18.9253 38.243C18.7038 38.3951 18.481 38.4625 18.2569 38.4452C18.0328 38.4278 17.8273 38.3645 17.6405 38.2551C17.4537 38.1456 17.3117 37.9829 17.2143 37.7668C17.1169 37.5507 17.1149 37.3198 17.2083 37.0744L19.6137 29.1696L13.6301 24.851C13.4006 24.707 13.2539 24.5229 13.1898 24.2987C13.1258 24.0746 13.1365 23.8518 13.2218 23.6303C13.3072 23.4089 13.4367 23.2307 13.6101 23.096C13.7835 22.9613 13.993 22.8939 14.2385 22.8939H21.751L24.2085 14.8251C24.3019 14.5796 24.4373 14.3868 24.6147 14.2467C24.7922 14.1067 24.9956 14.0366 25.2251 14.0366C25.4546 14.0366 25.658 14.1067 25.8355 14.2467C26.0129 14.3868 26.1483 14.5796 26.2417 14.8251L28.6992 22.8939H36.2117C36.4572 22.8939 36.6666 22.9613 36.8401 23.096C37.0135 23.2307 37.1429 23.4089 37.2283 23.6303C37.3137 23.8518 37.3244 24.0746 37.2603 24.2987C37.1963 24.5229 37.0496 24.707 36.8201 24.851L30.8365 29.1696L33.2419 37.0744C33.3353 37.3198 33.3333 37.5507 33.2359 37.7668C33.1385 37.9829 32.9964 38.1456 32.8097 38.2551C32.6229 38.3645 32.4174 38.4278 32.1933 38.4452C31.9692 38.4625 31.7464 38.3951 31.5249 38.243L25.2251 33.4442Z" fill="#D4AF37"/>
</g>
</svg>
