<svg width="72" height="72" viewBox="0 0 72 72" fill="none" xmlns="http://www.w3.org/2000/svg">
<mask id="mask0_492_596" style="mask-type:alpha" maskUnits="userSpaceOnUse" x="0" y="0" width="72" height="72">
<rect width="72" height="72" fill="#D9D9D9"/>
</mask>
<g mask="url(#mask0_492_596)">
<path d="M15.4666 57.653L11.6 50.9987L4.25831 49.3564L4.97499 41.6384L0 35.8265L4.97499 30.0146L4.25831 22.2967L11.6 20.6544L15.4666 14L22.3749 16.9953L29.2832 14L33.1498 20.6544L40.4915 22.2967L39.7748 30.0146L44.7498 35.8265L39.7748 41.6384L40.4915 49.3564L33.1498 50.9987L29.2832 57.653L22.3749 54.6577L15.4666 57.653ZM16.8499 53.4154L22.3749 51.0243L27.9666 53.4154L31.0416 48.1056L36.9999 46.71L36.4582 40.4726L40.4666 35.8265L36.4582 31.1123L36.9999 24.8749L31.0416 23.5475L27.8999 18.2376L22.3749 20.6288L16.7832 18.2376L13.7082 23.5475L7.7499 24.8749L8.29156 31.1123L4.28323 35.8265L8.29156 40.4726L7.7499 46.7781L13.7082 48.1056L16.8499 53.4154ZM20.0999 42.9148L31.5915 31.1804L29.3082 28.7808L20.0999 38.1836L15.4416 33.495L13.1583 35.8265L20.0999 42.9148Z" fill="#005762"/>
</g>
</svg>
