<?xml version="1.0" encoding="UTF-8"?>
<!DOCTYPE svg PUBLIC "-//W3C//DTD SVG 1.1//EN" "http://www.w3.org/Graphics/SVG/1.1/DTD/svg11.dtd">
<!-- Creator: CorelDRAW 2020 (64-Bit) -->
<svg xmlns="http://www.w3.org/2000/svg" xml:space="preserve" width="56.6993mm" height="20.77mm" version="1.1" style="shape-rendering:geometricPrecision; text-rendering:geometricPrecision; image-rendering:optimizeQuality; fill-rule:evenodd; clip-rule:evenodd"
viewBox="0 0 1748.34 640.45"
 xmlns:xlink="http://www.w3.org/1999/xlink"
 xmlns:xodm="http://www.corel.com/coreldraw/odm/2003">
 <defs>
  <style type="text/css">
   <![CDATA[
    .str1 {stroke:#FEFEFE;stroke-width:6.17;stroke-miterlimit:22.9256}
    .str0 {stroke:#FEFEFE;stroke-width:2.35;stroke-miterlimit:22.9256}
    .fil1 {fill:#FEFEFE}
    .fil0 {fill:#FEFEFE;fill-rule:nonzero}
   ]]>
  </style>
 </defs>
 <g id="Capa_x0020_1">
  <metadata id="CorelCorpID_0Corel-Layer"/>
  <g id="_2541423540688">
   <path class="fil0 str0" d="M652.16 240.89c0,12.26 -3.74,22.8 -11.29,31.61 -7.55,8.82 -17.91,15.96 -31.22,21.49 -13.7,5.74 -29.35,9.86 -46.87,12.42 -17.6,2.55 -37.37,3.81 -59.33,3.81l-26.47 0 0 60.93c0,3.65 1.01,6.83 3.11,9.55 2.1,2.66 6.07,4.85 11.91,6.47 3.11,0.84 8.09,1.67 15.03,2.61 6.93,0.88 12.84,1.51 17.59,1.83l0 11.89 -176.11 0 0 -11.89c4.44,-0.31 10.27,-0.73 17.67,-1.3 7.32,-0.57 12.38,-1.25 15.34,-2.09 5.91,-1.62 9.89,-3.6 11.75,-5.95 1.95,-2.35 2.88,-5.58 2.88,-9.76l0 -153.05c0,-3.6 -0.93,-6.68 -2.72,-9.28 -1.87,-2.61 -5.84,-4.75 -11.91,-6.47 -4.28,-1.25 -9.97,-2.35 -17.05,-3.29 -7.17,-0.99 -12.46,-1.62 -15.96,-1.93l0 -11.89 178.75 0c41.89,0 73.11,4.49 93.82,13.41 20.71,8.92 31.06,22.53 31.06,40.9zm-88.76 7.72c0,-16.33 -4.9,-28.48 -14.79,-36.36 -9.81,-7.93 -27.41,-11.89 -52.63,-11.89l-18.99 0 0 95.46 9.65 0c25.07,0 44.07,-3.86 57.15,-11.58 13.08,-7.72 19.62,-19.56 19.62,-35.63zm484.49 154.88l-124.1 0c-21.49,-21.96 -39.24,-39.49 -53.48,-52.48 -14.17,-13.04 -31.84,-28.07 -52.94,-45.18l-12.85 0 0 65.78c0,3.65 1.01,6.73 3.11,9.29 2.03,2.56 6,4.69 11.76,6.42 2.88,0.83 7.47,1.67 13.62,2.5 6.15,0.88 11.45,1.46 15.89,1.77l0 11.89 -172.84 0 0 -11.89c4.43,-0.31 10.27,-0.73 17.51,-1.3 7.24,-0.57 12.38,-1.25 15.49,-2.09 5.76,-1.62 9.65,-3.65 11.67,-6.15 1.95,-2.5 2.96,-5.69 2.96,-9.55l0 -153.05c0,-3.7 -0.85,-6.73 -2.49,-9.18 -1.71,-2.45 -5.76,-4.59 -12.15,-6.42 -4.91,-1.36 -10.67,-2.45 -17.29,-3.39 -6.69,-0.89 -11.91,-1.56 -15.72,-1.98l0 -11.89 181.79 0c40.64,0 71.47,4.28 92.57,12.78 21.1,8.5 31.61,21.39 31.61,38.66 0,15.18 -6.54,27.44 -19.54,36.67 -13,9.23 -32.86,16.43 -59.48,21.65 10.35,8.97 22.42,19.36 36.2,31.14 13.78,11.79 28.1,23.89 42.97,36.2 4.75,3.97 11.13,8.82 19.31,14.55 8.09,5.74 15.26,9.28 21.56,10.59 3.5,0.73 7.94,1.36 13.31,1.83 5.37,0.52 9.26,0.84 11.52,0.94l0 11.89zm-155.09 -161.3c0,-14.5 -6.07,-25.09 -18.22,-31.77 -12.15,-6.73 -29.5,-10.07 -51.93,-10.07l-18.14 0 0 91.08 17.44 0c22.5,0 39.86,-3.91 52.24,-11.79 12.38,-7.88 18.61,-20.35 18.61,-37.46zm455.06 -31.46c15.89,9.81 28.58,21.6 37.92,35.47 9.34,13.88 14.01,29.63 14.01,47.37 0,15.81 -3.97,30.83 -11.83,45.07 -7.94,14.29 -19.31,26.55 -34.18,36.88 -15.65,10.69 -34.1,18.99 -55.2,24.99 -21.1,5.95 -46.25,8.92 -75.44,8.92 -23.59,0 -45.86,-2.61 -66.8,-7.77 -20.94,-5.22 -39.4,-12.78 -55.36,-22.64 -15.8,-9.7 -28.34,-21.44 -37.6,-35.32 -9.27,-13.88 -13.94,-29.27 -13.94,-46.32 0,-17.68 4.52,-33.8 13.55,-48.2 9.03,-14.4 21.49,-26.76 37.3,-37.04 15.65,-10.12 34.26,-17.89 55.74,-23.32 21.49,-5.48 44.38,-8.19 68.74,-8.19 24.13,0 46.79,2.66 67.97,7.93 21.25,5.32 39.55,12.73 55.12,22.17zm-58.55 155.35c6.85,-9.34 11.76,-19.82 14.79,-31.61 3.04,-11.74 4.59,-24.99 4.59,-39.8 0,-12.57 -1.33,-24.83 -3.97,-36.72 -2.65,-11.89 -7.24,-22.48 -13.62,-31.77 -6.54,-9.34 -15.18,-16.8 -26.01,-22.38 -10.82,-5.63 -24.21,-8.45 -40.33,-8.45 -27.56,0 -48.5,8.76 -62.83,26.29 -14.25,17.53 -21.41,42.25 -21.41,74.23 0,13.62 1.56,26.4 4.67,38.5 3.12,12.05 8.02,22.54 14.72,31.56 6.85,9.08 15.49,16.17 26,21.23 10.51,5.06 23.43,7.56 38.85,7.56 15.03,0 27.95,-2.56 38.77,-7.67 10.74,-5.11 19.38,-12.1 25.77,-20.97z"/>
   <path class="fil1 str1" d="M21.03 128.86l170.63 0 0 -47.84 315.26 0c102.26,-37.66 229.42,-59.99 367.26,-59.99 137.83,0 265,22.33 367.26,59.99l315.26 0 0 47.84 170.63 0 0 382.74 -170.63 0 0 47.84 -315.26 0c-102.26,37.66 -229.42,59.99 -367.26,59.99 -137.83,0 -265,-22.33 -367.26,-59.99l-315.26 0 0 -47.84 -170.63 0 0 -382.74zm152.69 -17.94l0 -47.84 330.02 0c116.51,-42.39 246.95,-59.99 370.44,-59.99 123.49,0 253.94,17.6 370.44,59.99l330.02 0 0 47.84 170.63 0 0 418.62 -170.63 0 0 47.84 -330.02 0c-116.5,42.39 -246.95,59.99 -370.44,59.99 -123.49,0 -253.93,-17.6 -370.43,-59.99l-330.02 0 0 -47.84 -170.63 0 0 -418.62 170.63 0z"/>
   <g>
    <path class="fil0 str0" d="M333.34 527.71c20.68,0 25.66,-7.05 25.66,-21.85l0 -50.93 -18.33 0 0 50.66c0,5.17 -2.35,7.14 -9.49,7.14 -2.54,0 -4.98,-0.09 -7.52,-0.27l0 14.63c3.57,0.36 5.83,0.63 9.68,0.63zm79.52 0.18c27.83,0 37.88,-8.03 37.88,-32.91l0 -40.05 -18.42 0 0 40.05c0,14.36 -3.85,17.57 -19.46,17.57 -15.6,0 -19.45,-3.21 -19.45,-17.57l0 -40.05 -18.42 0 0 40.05c0,24.88 9.96,32.91 37.88,32.91zm54.05 -1.43l62.23 0 0 -14.89 -43.9 0 0 -13.74 40.23 0 0 -14.89 -40.23 0 0 -13.11 43.9 0 0 -14.89 -62.23 0 0 71.53zm112.98 1.43c29.32,0 39.48,-12.13 39.48,-28.27l0 -13.82 -42.39 0 0 14.63 23.97 0c-0.56,8.56 -7.33,12.22 -21.05,12.22 -17.48,0 -22.28,-6.33 -22.28,-21.94 0,-15.52 4.89,-21.94 22.09,-21.94 11.37,0 17.39,2.77 20.11,9.36l19.18 0c-3.48,-16.77 -15.23,-24.62 -39.29,-24.62 -29.52,0 -40.7,11.77 -40.7,37.19 0,25.42 11.18,37.19 40.89,37.19zm91.08 0c29.52,0 40.8,-11.77 40.8,-37.19 0,-25.42 -11.28,-37.19 -40.8,-37.19 -29.61,0 -40.89,11.77 -40.89,37.19 0,25.42 11.28,37.19 40.89,37.19zm0 -15.25c-17.39,0 -22.28,-6.33 -22.28,-21.94 0,-15.61 4.89,-21.94 22.28,-21.94 17.39,0 22.18,6.33 22.18,21.94 0,15.61 -4.79,21.94 -22.18,21.94zm53.2 11.24c9.3,2.32 21.34,4.01 32.43,4.01 25.75,0 35.24,-7.58 35.24,-22.92 0,-16.23 -8.08,-20.78 -32.99,-22.92 -14.48,-1.43 -16.64,-2.14 -16.64,-7.14 0,-5.17 2.63,-6.42 16.54,-6.42 9.4,0 18.05,1.16 29.14,3.39l0 -15.16c-10.24,-2.23 -19.36,-3.21 -29.33,-3.21 -26.13,0 -35.06,7.67 -35.06,22.3 0,15.97 8.18,20.34 32.99,22.3 14.38,1.43 16.54,2.5 16.54,7.94 0,5.35 -2.91,6.87 -16.64,6.87 -10.62,0 -22.09,-2.05 -32.24,-4.19l0 15.16zm110.35 2.5l34.12 0c29.42,0 40.7,-10.61 40.7,-35.68 0,-24.26 -11.28,-35.76 -40.7,-35.76l-34.12 0 0 71.44zm34.12 -56.37c17.3,0 22,6.15 22,20.69 0,14.63 -4.7,20.6 -22,20.6l-15.79 0 0 -41.29 15.79 0zm53.96 56.46l62.23 0 0 -14.89 -43.9 0 0 -13.74 40.23 0 0 -14.89 -40.23 0 0 -13.11 43.9 0 0 -14.89 -62.23 0 0 71.53zm103.77 -2.59c9.3,2.32 21.34,4.01 32.43,4.01 25.75,0 35.24,-7.58 35.24,-22.92 0,-16.23 -8.08,-20.78 -32.99,-22.92 -14.48,-1.43 -16.64,-2.14 -16.64,-7.14 0,-5.17 2.63,-6.42 16.54,-6.42 9.4,0 18.05,1.16 29.14,3.39l0 -15.16c-10.24,-2.23 -19.36,-3.21 -29.33,-3.21 -26.13,0 -35.06,7.67 -35.06,22.3 0,15.97 8.18,20.34 32.99,22.3 14.38,1.43 16.54,2.5 16.54,7.94 0,5.35 -2.91,6.87 -16.64,6.87 -10.62,0 -22.09,-2.05 -32.24,-4.19l0 15.16zm73.32 2.59l19.65 0 6.01 -16.14 33.93 0 6.02 16.14 19.55 0 -27.82 -71.53 -29.42 0 -27.92 71.53zm31.3 -31.21l9.77 -26.04 3.01 0 9.77 26.04 -22.56 0zm64.29 31.21l53.2 0 0 -15.07 -34.87 0 0 -56.46 -18.33 0 0 71.53zm98.69 1.43c29.52,0 40.8,-11.77 40.8,-37.19 0,-25.42 -11.28,-37.19 -40.8,-37.19 -29.61,0 -40.89,11.77 -40.89,37.19 0,25.42 11.28,37.19 40.89,37.19zm0 -15.25c-17.39,0 -22.28,-6.33 -22.28,-21.94 0,-15.61 4.89,-21.94 22.28,-21.94 17.39,0 22.18,6.33 22.18,21.94 0,15.61 -4.79,21.94 -22.18,21.94zm54.14 13.82l18.33 0 0 -47.54 34.87 47.54 23.31 0 0 -71.53 -18.33 0 0 48.78 -35.44 -48.78 -22.75 0 0 71.53z"/>
    <polygon class="fil1 str0" points="231.43,480.26 287.01,480.26 287.01,501.14 231.43,501.14 "/>
    <polygon class="fil1 str0" points="1461.34,480.26 1516.91,480.26 1516.91,501.14 1461.34,501.14 "/>
   </g>
   <g>
    <polygon class="fil1 str0" points="1121.61,115.56 1517.45,115.56 1517.45,136.44 1121.61,136.44 "/>
    <polygon class="fil1 str0" points="230.9,115.56 626.74,115.56 626.74,136.44 230.9,136.44 "/>
    <path class="fil1 str1" d="M888.89 96.04c18.09,-5.3 33.72,8.01 46.15,16.1 4.78,3.11 21.31,14.63 28.58,10.7 6.74,-3.65 5.34,-15 -2.3,-18.48 -3.61,-1.65 -4.97,-1.33 -7.95,-0.94 0.54,-2.81 5.1,-4.59 7.78,-4.78 23.88,-1.78 26.42,41.03 -0.94,50.87 -14.37,5.17 -28.23,5.52 -44.02,1.56 -9.9,-2.48 -36.52,-12.98 -42,-21.31 0,0 0,0 0,0 -5.49,8.33 -31.73,19.05 -41.63,21.53 -15.78,3.96 -29.65,3.61 -44.02,-1.56 -27.36,-9.84 -24.82,-52.64 -0.93,-50.87 2.67,0.2 7.24,1.98 7.77,4.79 -2.98,-0.39 -4.34,-0.7 -7.95,0.94 -7.64,3.48 -9.05,14.83 -2.3,18.48 7.26,3.93 23.8,-7.59 28.58,-10.7 12.42,-8.09 28.05,-21.4 46.14,-16.1 1.21,0.36 14.26,7.96 14.34,7.81 3.19,-1.76 8.73,-5.67 14.71,-8.03z"/>
   </g>
  </g>
 </g>
</svg>
