<svg width="44" height="44" viewBox="0 0 44 44" fill="none" xmlns="http://www.w3.org/2000/svg">
<path d="M14.1471 7.00165C14.0095 7.00807 13.8736 7.03536 13.7439 7.0826L5.91916 9.98108C5.58095 10.1063 5.27843 10.389 5.12701 10.719C4.9756 11.0487 4.95817 11.4652 5.0822 11.8065L10.1157 25.6569C10.2397 25.9982 10.5197 26.306 10.8465 26.4588C11.1733 26.6117 11.5858 26.6294 11.9238 26.5041L19.7487 23.6055C20.087 23.4803 20.3895 23.1977 20.5409 22.8678L20.5432 22.863C20.6927 22.5338 20.7091 22.1199 20.5857 21.7802L15.5522 7.92973C15.4288 7.59009 15.151 7.28365 14.8261 7.13012L14.8214 7.12784C14.658 7.0513 14.4726 7.00934 14.2862 7.00157C14.2396 6.99967 14.1934 6.99937 14.1471 7.00165ZM17.0942 8.03916L21.9107 21.2899C22.1677 21.9991 22.1354 22.7822 21.8211 23.4675C21.5068 24.1521 20.9362 24.6828 20.2345 24.9429L18.1644 25.7093L22.6909 25.921C23.0508 25.938 23.4386 25.7946 23.7049 25.5498C23.9711 25.3048 24.1477 24.9276 24.1645 24.5644L24.8435 9.82869C24.8602 9.46559 24.7207 9.07188 24.4781 8.80306C24.2355 8.53424 23.8619 8.35604 23.502 8.33906L17.0941 8.03901L17.0942 8.03916ZM26.2228 10.5713L25.572 24.6312C25.5372 25.3854 25.2074 26.0949 24.6549 26.604C24.1019 27.1118 23.3718 27.3771 22.625 27.3418L20.659 27.2489L25.8927 29.0076C26.2345 29.1224 26.6481 29.0919 26.9701 28.9292C27.2922 28.7662 27.5614 28.4507 27.6751 28.1057L32.2888 14.1079C32.4025 13.7628 32.3723 13.3454 32.2111 13.0203C32.0496 12.6951 31.7371 12.421 31.3952 12.3063L26.2229 10.5714L26.2228 10.5713ZM10.7522 11.9683C12.5974 13.8673 15.8838 13.3193 16.8442 15.4356C17.7401 17.41 15.7495 18.9391 13.9796 18.3604L15.2622 20.7045L13.8453 21.2305L13.0202 18.8173C12.2364 20.5402 9.77218 20.6256 8.93446 18.7769C7.91372 16.5246 10.7467 14.6494 10.7522 11.9683ZM33.4935 14.955L29.0142 28.5554C28.7781 29.2716 28.2702 29.8638 27.6019 30.2022L27.5948 30.2045C26.9277 30.5394 26.1564 30.5941 25.4494 30.3568L23.9122 29.8405L27.1798 32.6605C27.4536 32.8967 27.8486 33.0245 28.2077 32.9961C28.5668 32.9676 28.9333 32.7798 29.1673 32.5034L38.6637 21.2852C38.8977 21.0088 39.0243 20.6124 38.9961 20.2499C38.968 19.8874 38.7796 19.5152 38.5057 19.279L33.4936 14.955L33.4935 14.955Z" fill="white"/>
</svg>
