<svg width="30" height="30" viewBox="0 0 30 30" fill="none" xmlns="http://www.w3.org/2000/svg">
<g clip-path="url(#clip0_336_509)">
<path d="M29.0741 17.373C30.9198 12.8145 29.9999 7.39453 26.3085 3.69727C21.3925 -1.23047 13.4179 -1.23047 8.50184 3.69727L5.22059 6.98438L17.6132 19.377C20.3143 15.7383 25.3182 14.8418 29.0741 17.373ZM16.3065 22.043L3.39246 9.13477C1.79285 11.7891 2.12098 15.2871 4.40613 17.5781L6.42762 19.6055L0.392463 24.8438C-0.111443 25.2832 -0.14074 26.0566 0.33387 26.5313L3.46278 29.666C3.93153 30.1406 4.70496 30.1113 5.14442 29.6074L10.3768 23.5547L12.4686 25.6465C13.6229 26.8008 15.0819 27.4336 16.5878 27.5977C16.1718 26.6016 15.9432 25.5117 15.9432 24.3691C15.9374 23.5605 16.0897 22.7871 16.3065 22.043ZM24.3749 18.75C21.2694 18.75 18.7499 21.2695 18.7499 24.375C18.7499 27.4805 21.2694 30 24.3749 30C27.4804 30 29.9999 27.4805 29.9999 24.375C29.9999 21.2695 27.4804 18.75 24.3749 18.75Z" fill="white"/>
</g>
<defs>
<clipPath id="clip0_336_509">
<rect width="30" height="30" fill="white"/>
</clipPath>
</defs>
</svg>
