<svg width="25" height="24" viewBox="0 0 25 24" fill="none" xmlns="http://www.w3.org/2000/svg">
<path d="M13.4633 11.932L11.6398 14.257L10.6766 13.0289C10.659 13.0065 10.6366 12.9884 10.611 12.9759C10.5854 12.9634 10.5574 12.957 10.5289 12.957C10.5004 12.957 10.4724 12.9634 10.4468 12.9759C10.4212 12.9884 10.3988 13.0065 10.3813 13.0289L8.04219 16.0102C8.02055 16.0378 8.00712 16.071 8.00344 16.1059C7.99976 16.1408 8.00598 16.176 8.02138 16.2075C8.03678 16.2391 8.06075 16.2657 8.09054 16.2842C8.12033 16.3028 8.15474 16.3126 8.18984 16.3125H16.8125C16.9695 16.3125 17.0562 16.132 16.9602 16.0102L13.7609 11.932C13.7432 11.9096 13.7205 11.8915 13.6948 11.879C13.669 11.8665 13.6407 11.86 13.6121 11.86C13.5835 11.86 13.5552 11.8665 13.5294 11.879C13.5037 11.8915 13.4811 11.9096 13.4633 11.932ZM8.9375 10.3594C8.9375 10.608 9.03627 10.8465 9.21209 11.0223C9.3879 11.1981 9.62636 11.2969 9.875 11.2969C10.1236 11.2969 10.3621 11.1981 10.5379 11.0223C10.7137 10.8465 10.8125 10.608 10.8125 10.3594C10.8125 10.1107 10.7137 9.87228 10.5379 9.69646C10.3621 9.52065 10.1236 9.42188 9.875 9.42188C9.62636 9.42188 9.3879 9.52065 9.21209 9.69646C9.03627 9.87228 8.9375 10.1107 8.9375 10.3594ZM20.5297 6.76406L15.4859 1.72031C15.3453 1.57969 15.1555 1.5 14.9562 1.5H5C4.58516 1.5 4.25 1.83516 4.25 2.25V21.75C4.25 22.1648 4.58516 22.5 5 22.5H20C20.4148 22.5 20.75 22.1648 20.75 21.75V7.29609C20.75 7.09687 20.6703 6.90469 20.5297 6.76406ZM19.0203 7.64062H14.6094V3.22969L19.0203 7.64062ZM19.0625 20.8125H5.9375V3.1875H13.0156V8.25C13.0156 8.51107 13.1193 8.76145 13.3039 8.94606C13.4885 9.13066 13.7389 9.23438 14 9.23438H19.0625V20.8125Z" fill="#757575"/>
</svg>
